PathFileType	4	(X/Y/Z)	../Python\walking\Walking08\task.trc
DataRate	CameraRate	NumFrames	NumMarkers	Units	OrigDataRate	OrigDataStartFrame	OrigNumFrames
200.000000	200.000000	4	30	mm	200.000000	187	501
Frame#	Time	CLAV			STRN			RASI			LPSI			LASI			RTH1			RTH2			RTH3			RTB1			RTB2			RTB3			RHEE			RD5M			RTOE			LTB1			LTB2			LTB3			LTOE			LD5M			RPSI			LTH2			LTH1			PE03			T10			LTH3			PE01			PE02			C7			RBAK			LHEE			
		X1	Y1	Z1	X2	Y2	Z2	X3	Y3	Z3	X4	Y4	Z4	X5	Y5	Z5	X6	Y6	Z6	X7	Y7	Z7	X8	Y8	Z8	X9	Y9	Z9	X10	Y10	Z10	X11	Y11	Z11	X12	Y12	Z12	X13	Y13	Z13	X14	Y14	Z14	X15	Y15	Z15	X16	Y16	Z16	X17	Y17	Z17	X18	Y18	Z18	X19	Y19	Z19	X20	Y20	Z20	X21	Y21	Z21	X22	Y22	Z22	X23	Y23	Z23	X24	Y24	Z24	X25	Y25	Z25	X26	Y26	Z26	X27	Y27	Z27	X28	Y28	Z28	X29	Y29	Z29	X30	Y30	Z30	

188	0.9350000000000001	783.0971069335942	1412.443481445313	153.0893249511719	838.870971679688	1220.899780273438	174.1908569335938	809.6676635742192	992.6515502929692	314.3921813964845	647.3750000000002	1055.15283203125	126.7912597656251	827.504516601563	1024.574462890625	41.86839675903322	755.952819824219	724.2680664062502	344.9098510742189	697.3696899414065	705.576110839844	335.7991027832032	714.588073730469	658.5068359375002	327.3406066894532	598.9381103515627	363.9329833984376	298.2189941406251	537.369079589844	369.7136840820314	298.9005126953126	533.0749511718752	320.3342285156251	288.9745178222657	276.7306213378907	246.4641876220704	217.782684326172	305.3689270019532	86.43656921386722	279.7904357910157	340.3271484375001	56.71365737915042	240.4719543457032	869.1488647460942	357.9234313964845	52.42351531982425	840.1752929687505	317.9939575195314	63.72631835937503	891.789184570313	283.6935119628907	66.65907287597659	1032.750610351563	33.67109680175783	143.4326934814454	990.9787597656255	17.41635704040528	92.06022644042972	649.3150024414065	1044.57177734375	226.6272430419923	809.059204101563	670.982116699219	14.36975669860841	825.3571777343755	716.5730590820315	2.582597494125367	642.1063232421877	1039.461791992188	151.1251068115235	609.0961914062502	1245.508056640625	167.8697662353516	867.155151367188	652.562438964844	22.82745552062989	654.806823730469	1097.111694335938	181.4427185058594	644.4898681640627	1034.535034179688	202.108367919922	667.0798950195315	1500.904296875	139.2469635009766	649.9595336914065	1428.248901367188	319.6816711425782	820.1857910156255	34.24174880981447	142.2468414306641	
189	0.9400000000000001	790.0635375976567	1413.307006835938	152.9417724609376	845.7698364257817	1221.678466796875	174.1220245361329	816.1926879882817	993.3074340820317	314.0517578125001	654.0593261718752	1055.919555664063	126.4057540893555	834.2885131835942	1025.506958007813	41.52447891235353	765.3708496093752	724.5530395507815	344.570526123047	707.149841308594	704.9620361328127	334.9677124023439	725.1522216796877	658.1629638671877	326.8611450195314	613.090759277344	364.0302124023439	298.4027099609376	551.5918579101565	370.3121337890626	299.6190490722657	546.8502197265627	321.0698852539064	289.1680297851564	289.284149169922	250.0296478271486	218.0392913818361	316.9451293945314	90.35630798339847	281.2203674316407	351.7749328613282	59.48556900024417	242.4473876953126	870.5942382812505	357.7967224121095	52.3996505737305	841.4763793945317	318.0742492675782	63.96084976196292	892.848510742188	283.4079589843751	66.49319458007815	1032.968139648438	33.5238609313965	143.4023742675782	990.9481811523442	17.32824325561524	91.98142242431643	655.9909667968752	1045.064697265625	226.1871337890626	813.2185058593755	671.4521484375002	14.02215480804444	830.165161132813	716.8369750976565	2.284336090087892	648.8085937500002	1040.126831054688	150.6942901611329	615.9791259765627	1246.380737304688	167.3741455078126	870.9409179687505	652.255310058594	22.80097007751466	661.5310058593752	1097.709716796875	181.1321105957032	651.1750488281252	1035.0986328125	201.6758117675782	674.0632324218752	1501.7890625	138.8914794921876	656.656188964844	1429.12939453125	319.2789001464845	820.1665039062505	34.30340957641603	142.4233703613282	
190	0.9450000000000001	796.984497070313	1414.194580078125	152.8089447021485	852.611450195313	1222.478637695313	174.0564727783204	822.637817382813	994.0591430664067	313.7486267089845	660.703552246094	1056.72265625	125.9684677124024	841.0236206054692	1026.3779296875	41.20130157470705	774.606323242188	725.0130004882815	344.2849426269532	716.7722778320315	704.5424804687502	334.1130371093751	735.543640136719	658.0410766601565	326.361541748047	627.3445434570315	364.296844482422	298.5523071289064	565.9099731445315	371.0198364257814	300.2630615234376	560.779235839844	321.901092529297	289.3304138183595	302.0513610839845	253.1806030273439	218.0637512207032	329.2068176269532	94.08563232421878	282.7130737304689	364.0811462402345	62.1982116699219	244.5412902832032	871.9121704101567	357.6572875976564	52.38203811645511	842.6757202148442	318.1523742675782	64.2048263549805	893.7936401367192	283.111053466797	66.32840728759768	1033.18408203125	33.36571121215822	143.3845825195313	990.9297485351567	17.23883819580079	91.913688659668	662.6101684570315	1045.629150390625	225.6997528076173	817.0075073242192	671.8587646484377	13.809476852417	834.5891113281255	717.0232543945315	2.07627034187317	655.459167480469	1040.840698242188	150.2195434570313	622.807556152344	1247.286010742188	166.8529205322266	874.3610229492192	651.8806152343752	22.79118919372559	668.2131958007815	1098.363159179688	180.7608642578126	657.8054199218752	1035.725463867188	201.2004241943361	681.0103759765627	1502.703002929688	138.5476684570313	663.3018798828127	1430.026000976563	318.8773498535157	820.1550903320317	34.37711715698244	142.602279663086	
191	0.9500000000000001	803.860229492188	1415.105712890625	152.6893005371094	859.398071289063	1223.301635742188	173.9914093017579	829.0117187500005	994.9054565429692	313.4777221679689	667.310974121094	1057.564086914063	125.4837951660157	847.7101440429692	1027.191772460938	40.8967971801758	783.6614379882817	725.6427001953127	344.0507812500001	726.2415771484377	704.3125610351565	333.2363891601564	745.7653808593752	658.1323852539065	325.842742919922	641.6812133789065	364.7384033203126	298.6760253906251	580.3034667968752	371.8410949707032	300.8242492675782	574.8442382812502	322.8275756835939	289.4705200195314	315.0244445800782	255.9010467529298	217.8762817382814	342.1295166015626	97.58730316162115	284.251922607422	377.2039794921876	64.81443786621097	246.7284698486329	873.137084960938	357.5149536132814	52.36841583251956	843.7994995117192	318.2321777343751	64.44791412353518	894.661743164063	282.8193969726564	66.16735839843753	1033.396362304688	33.2012062072754	143.3799438476563	990.9219360351567	17.15269851684571	91.85569763183597	669.1779785156252	1046.268432617188	225.1704864501954	820.4918823242192	672.2193603515627	13.71276473999024	838.6781616210942	717.1542968750002	1.94784963130951	662.0620117187502	1041.605834960938	149.7055206298829	629.5842895507815	1248.2216796875	166.306625366211	877.4938964843755	651.476013183594	22.78876686096192	674.856384277344	1099.074584960938	180.3331451416016	664.3856201171877	1036.417724609375	200.6869049072267	687.9212646484377	1503.644165039063	138.2150573730469	669.897399902344	1430.937255859375	318.4760742187501	820.1514282226567	34.46202468872072	142.7823486328126	
